# xmcd
#
# Track frame offsets: 
#        182
#        13255
#        23452
#        39567
#        53975
#        69560
#        86530
#        99852
#        116542
#        133977
#        145667
#        159505
#        179545
#        197542
#
# Disc length: 2851 seconds
#
# Revision: 8
# Processed by: cddbd v1.5.2PL0 Copyright (c) Steve Scherf et al.
# Submitted via: ExactAudioCopyFreeDBPlugin 1.0
#
DISCID=b70b210e
DTITLE=Colin James - And The Little Big Band II
DYEAR=1998
DGENRE=Jazz
TTITLE0=Jumpin' From Six To Six
TTITLE1=Safronia B
TTITLE2=Mary Anne
TTITLE3=Let's Shout (Baby Work Out)
TTITLE4=You Know My Love
TTITLE5=I'll See It Through
TTITLE6=C'Mon With The C'Mon
TTITLE7=Rocket To The Moon
TTITLE8=Think
TTITLE9=Somethin's Goin' On In My Room
TTITLE10=I'm Lost Without You
TTITLE11=Tin Pan Alley
TTITLE12=Triple Shot
TTITLE13=Oh Babe
EXTD=
EXTT0=
EXTT1=
EXTT2=
EXTT3=(Baby Work Out)
EXTT4=
EXTT5=
EXTT6=
EXTT7=
EXTT8=
EXTT9=
EXTT10=
EXTT11=
EXTT12=
EXTT13=
PLAYORDER=
